 http://bayimg.com/iagnbaAeF

Teen Valentina is very cute with her beautiful long hair, sweet pink top, sexy denim mini skirt that barely hides her ass and pussy. She was supposed to get a relaxing massage, but very soon she became horny and her masseur decided to go on with his massage... He starts licking her sweet teen pussy and then he gives Valentina his erected pecker. Then the masseur fucks her tight snatch as hard as he can - Valentina will be satisfied with this massage.

Tricky_Masseur_Valentina.wmv
Format                                   : Windows Media
File size                                : 802 MiB
Duration                                 : 23mn 34s
Overall bit rate mode                    : Constant
Overall bit rate                         : 4 755 Kbps
Maximum Overall bit rate                 : 4 774 Kbps
Performer                                : Royal-Cash.com
Encoded date                             : UTC 2011-08-30 12:17:06.890
Copyright                                : Royal-Cash.com

Video
ID                                       : 2
Format                                   : VC-1
Format profile                           : MP@HL
Codec ID                                 : WMV3
Codec ID/Info                            : Windows Media Video 9
Codec ID/Hint                            : WMV3
Description of the codec                 : Windows Media Video 9 - Professional
Duration                                 : 23mn 34s
Bit rate mode                            : Constant
Bit rate                                 : 4 608 Kbps
Width                                    : 1 280 pixels
Height                                   : 720 pixels
Display aspect ratio                     : 16:9
Frame rate                               : 25.000 fps
Bit depth                                : 8 bits
Scan type                                : Progressive
Compression mode                         : Lossy
Bits/(Pixel*Frame)                       : 0.200
Stream size                              : 777 MiB (97%)
Language                                 : English (US)
NumberOfFrames                           : 35347

Audio
ID                                       : 1
Format                                   : WMA
Format version                           : Version 2
Codec ID                                 : 161
Codec ID/Info                            : Windows Media Audio
Description of the codec                 : Windows Media Audio 9.1 - 128 kbps, 44 kHz, stereo 1-pass CBR
Duration                                 : 23mn 34s
Bit rate mode                            : Constant
Bit rate                                 : 128 Kbps
Channel(s)                               : 2 channels
Sampling rate                            : 44.1 KHz
Bit depth                                : 16 bits
Stream size                              : 21.6 MiB (3%)
Language                                 : English (US)
NumberOfFrames                           : 3809

